<svg id="Capa_1" data-name="Capa 1" xmlns="http://www.w3.org/2000/svg" viewBox="0 0 245.19 245.19"><defs><style>.cls-1{fill:none;stroke:#251f1e;stroke-miterlimit:10;}</style></defs><path class="cls-1" d="M3856,1666.15H3665a26.63,26.63,0,0,0-26.6,26.59v191a26.63,26.63,0,0,0,26.6,26.6h191a26.63,26.63,0,0,0,26.6-26.6v-191a26.63,26.63,0,0,0-26.6-26.59Zm13.62,217.59a13.62,13.62,0,0,1-13.62,13.61H3665a13.64,13.64,0,0,1-13.62-13.61v-191a13.64,13.64,0,0,1,13.62-13.61h191a13.62,13.62,0,0,1,13.62,13.61v191Z" transform="translate(-3637.93 -1665.65)"/><path class="cls-1" d="M3812.29,1776.61a45.41,45.41,0,0,0-7.79-5.76,41.92,41.92,0,0,0-8.61-3.79,51.37,51.37,0,0,0-10-2.15,105.2,105.2,0,0,0-12.95-.72h-9.19l-8.43,14.6h18.48a54.19,54.19,0,0,1,15.95,2.15,30,30,0,0,1,11.52,6.41,31.46,31.46,0,0,1,7.74,11.07,36.67,36.67,0,0,1,2.59,14,35.64,35.64,0,0,1-2.63,13.87,31,31,0,0,1-7.81,11,32.94,32.94,0,0,1-5.41,4,31.79,31.79,0,0,1-6,2.75,41,41,0,0,1-7.17,1.51c-2,.25-4.06.4-6.29.47h-33.19l.79-1.28c.27-.45.54-.9.79-1.36.5-.9,1-1.84,1.39-2.8a30.31,30.31,0,0,0,1.94-6.08,31.9,31.9,0,0,0,.65-6.44,33.16,33.16,0,0,0-1.3-9.35,29.38,29.38,0,0,0-3.88-8.2,35.73,35.73,0,0,0-6.05-6.83,39.25,39.25,0,0,0-7.14-4.93l-.74-.4.4-.74c1.47-2.65,3-5.34,4.53-8,1.62-2.81,3.34-5.69,5.1-8.58s3.37-5.6,5-8.44,3.31-5.77,4.84-8.55H3699v14.33h27.68l-.62,1.22c-1.28,2.51-2.67,5.06-4.15,7.59-1.68,2.89-3.47,5.75-5.31,8.51s-3.56,5.52-5.19,8.31-3.17,5.62-4.58,8.42h0a18.37,18.37,0,0,1,4.39-1.59,20.86,20.86,0,0,1,8.53-.19,17.5,17.5,0,0,1,3.37,1,18.54,18.54,0,0,1,3,1.64,17,17,0,0,1,2.62,2.14A17.77,17.77,0,0,1,3731,1818a20.91,20.91,0,0,1,1.69,3.06,17,17,0,0,1,1.09,3.37,17.5,17.5,0,0,1,.36,3.54,18.39,18.39,0,0,1-.36,3.66,17.05,17.05,0,0,1-1.09,3.4,20.06,20.06,0,0,1-1.7,3.06,17.72,17.72,0,0,1-4.78,4.78,18.67,18.67,0,0,1-3,1.69,14.93,14.93,0,0,1-2.74.91,20.17,20.17,0,0,1-2.88.41l-15.11,0-8.55,14.58h64.81l0,0h18.77l.25-.07q4.43-.18,8-.6a49.1,49.1,0,0,0,9.62-2,41.34,41.34,0,0,0,8.39-3.75,51.14,51.14,0,0,0,8-5.81,45.07,45.07,0,0,0,11.65-15.88,50.34,50.34,0,0,0,3.9-20.09,51.65,51.65,0,0,0-3.75-20A44.38,44.38,0,0,0,3812.29,1776.61Z" transform="translate(-3637.93 -1665.65)"/><path class="cls-1" d="M3717.16,1750.55a19.85,19.85,0,0,0,5.17-.66,18.54,18.54,0,0,0,4.7-2l.31-.18,0-8.76-1.06,1a13,13,0,0,1-9.08,3.52,9.49,9.49,0,0,1-7.19-2.75,12,12,0,0,1,.21-15.24,10.36,10.36,0,0,1,7.65-2.85,12,12,0,0,1,4.42.81,13.52,13.52,0,0,1,4,2.59l1,.89.3-8.56-.37-.18a22.62,22.62,0,0,0-4.89-1.72,23.38,23.38,0,0,0-5.13-.56,18.06,18.06,0,0,0-13,4.89,17.76,17.76,0,0,0,0,24.86A17.84,17.84,0,0,0,3717.16,1750.55Z" transform="translate(-3637.93 -1665.65)"/><polygon class="cls-1" points="106.29 84.05 114.36 84.05 114.36 58.05 122.13 58.05 122.13 51.02 98.52 51.02 98.52 58.05 106.29 58.05 106.29 84.05"/><path class="cls-1" d="M3778,1736.62l7.36,13.08h9.32l-8.87-14.63a8.25,8.25,0,0,0,4.56-2.76,9,9,0,0,0,2.13-6c0-3.2-1.06-5.64-3.13-7.26s-5.08-2.38-9.07-2.38h-10.35v33H3778Zm0-13.51h.39c3.08,0,4.42.47,5,.87a3.16,3.16,0,0,1,1.15,2.82,2.92,2.92,0,0,1-1.05,2.62c-.53.36-1.84.79-5.09.79H3778Z" transform="translate(-3637.93 -1665.65)"/><polygon class="cls-1" points="184.51 77.02 173.65 77.02 173.65 51.02 165.6 51.02 165.6 84.05 184.51 84.05 184.51 77.02"/></svg>